<svg width="14" height="14" viewBox="0 0 14 14" fill="none" xmlns="http://www.w3.org/2000/svg">
<path d="M1.18306 1.1447L1.13471 1.19305C0.753223 1.57454 0.753223 2.19304 1.13471 2.57453L11.4267 12.8665C11.8082 13.248 12.4267 13.248 12.8082 12.8665L12.8565 12.8182C13.238 12.4367 13.238 11.8182 12.8565 11.4367L2.56453 1.1447C2.18305 0.763216 1.56454 0.763216 1.18306 1.1447Z" fill="#BFBFBF"/>
<path d="M1.14201 12.8185L1.19037 12.8669C1.57185 13.2484 2.19036 13.2484 2.57184 12.8669L12.8638 2.57489C13.2453 2.19341 13.2453 1.5749 12.8638 1.19342L12.8155 1.14507C12.434 0.763584 11.8155 0.763584 11.434 1.14507L1.14201 11.4371C0.760531 11.8185 0.760531 12.437 1.14201 12.8185Z" fill="#BFBFBF"/>
</svg>
