<svg width="16" height="16" viewBox="0 0 16 16" fill="none" xmlns="http://www.w3.org/2000/svg">
<path d="M8.10035 10.7911C8.46702 10.7911 8.78091 10.7033 9.04202 10.5279C9.30313 10.3524 9.43369 10.0778 9.43369 9.70423C9.43369 9.37591 9.29758 9.10986 9.02535 8.90608C8.75313 8.70229 8.26702 8.47021 7.56702 8.20982C6.91146 7.97207 6.4309 7.68904 6.12534 7.36072C5.81979 7.0324 5.66701 6.60219 5.66701 6.07009C5.66701 5.60591 5.82534 5.18419 6.14201 4.80493C6.45868 4.42567 6.88924 4.17943 7.43368 4.06621V3.81148C7.43368 3.65299 7.49202 3.5143 7.60868 3.39543C7.72535 3.27655 7.86146 3.21712 8.01702 3.21712C8.17257 3.21712 8.30868 3.27655 8.42535 3.39543C8.54202 3.5143 8.60035 3.65299 8.60035 3.81148V4.06621C8.92258 4.08886 9.2198 4.19924 9.49202 4.39736C9.76425 4.59549 9.98369 4.83606 10.1504 5.1191C10.2281 5.24363 10.2337 5.37666 10.167 5.51817C10.1004 5.65969 9.98925 5.75875 9.83369 5.81536C9.68924 5.87196 9.5448 5.87762 9.40036 5.83234C9.25591 5.78705 9.13924 5.70214 9.05035 5.57761C8.93924 5.44175 8.80035 5.33137 8.63369 5.24646C8.46702 5.16155 8.26702 5.1191 8.03368 5.1191C7.64479 5.1191 7.34757 5.20401 7.14201 5.37383C6.93646 5.54365 6.83368 5.77573 6.83368 6.07009C6.83368 6.36444 6.96146 6.59653 7.21701 6.76635C7.47257 6.93617 7.93368 7.13429 8.60035 7.36072C9.40036 7.65507 9.93369 8.00037 10.2004 8.39662C10.467 8.79286 10.6004 9.22873 10.6004 9.70423C10.6004 10.0325 10.5448 10.3212 10.4337 10.5703C10.3226 10.8194 10.1754 11.0317 9.99202 11.2071C9.80869 11.3826 9.5948 11.5241 9.35036 11.6317C9.10591 11.7392 8.8448 11.8213 8.56702 11.8779V12.1327C8.56702 12.2912 8.50869 12.4298 8.39202 12.5487C8.27535 12.6676 8.13924 12.727 7.98368 12.727C7.82813 12.727 7.69202 12.6676 7.57535 12.5487C7.45868 12.4298 7.40035 12.2912 7.40035 12.1327V11.844C6.97812 11.7534 6.61701 11.5836 6.31701 11.3345C6.01701 11.0854 5.77812 10.7684 5.60034 10.3835C5.53368 10.225 5.53645 10.0722 5.60868 9.92499C5.6809 9.77782 5.79479 9.67593 5.95034 9.61932C6.09479 9.56271 6.23923 9.56554 6.38368 9.62781C6.52812 9.69008 6.63923 9.78914 6.71701 9.92499C6.87257 10.2193 7.06979 10.4373 7.30868 10.5788C7.54757 10.7203 7.81146 10.7911 8.10035 10.7911ZM8.00035 15.4441C6.7559 15.4441 5.61145 15.1554 4.56701 14.5781C3.52256 14.0007 2.667 13.2308 2.00033 12.2685V13.4063C2.00033 13.5988 1.93644 13.7601 1.80866 13.8903C1.68088 14.0205 1.52255 14.0856 1.33366 14.0856C1.14477 14.0856 0.986438 14.0205 0.858659 13.8903C0.730881 13.7601 0.666992 13.5988 0.666992 13.4063V10.6892C0.666992 10.4967 0.730881 10.3354 0.858659 10.2052C0.986438 10.075 1.14477 10.0099 1.33366 10.0099H4.00034C4.18923 10.0099 4.34756 10.075 4.47534 10.2052C4.60312 10.3354 4.66701 10.4967 4.66701 10.6892C4.66701 10.8816 4.60312 11.043 4.47534 11.1732C4.34756 11.3034 4.18923 11.3685 4.00034 11.3685H3.017C3.55034 12.1836 4.25312 12.8402 5.12534 13.3384C5.99757 13.8365 6.9559 14.0856 8.00035 14.0856C9.56702 14.0856 10.9142 13.5535 12.042 12.4893C13.1698 11.4251 13.8115 10.1175 13.967 8.56644C13.9893 8.3853 14.067 8.24095 14.2004 8.1334C14.3337 8.02584 14.4893 7.97207 14.667 7.97207C14.8559 7.97207 15.017 8.0315 15.1504 8.15038C15.2837 8.26925 15.3393 8.4136 15.317 8.58342C15.2393 9.54573 14.9948 10.4429 14.5837 11.2751C14.1726 12.1072 13.6393 12.8317 12.9837 13.4488C12.3281 14.0658 11.5754 14.5526 10.7254 14.9092C9.87536 15.2658 8.96702 15.4441 8.00035 15.4441ZM8.00035 1.85856C6.43368 1.85856 5.08645 2.39066 3.95867 3.45486C2.83089 4.51907 2.18922 5.82668 2.03366 7.3777C2.01144 7.55884 1.93366 7.70319 1.80033 7.81074C1.667 7.91829 1.51144 7.97207 1.33366 7.97207C1.14477 7.97207 0.98366 7.91263 0.850326 7.79376C0.716992 7.67488 0.661437 7.53054 0.683659 7.36072C0.761437 6.39841 1.00588 5.50119 1.41699 4.66907C1.82811 3.83696 2.36144 3.11239 3.017 2.49538C3.67256 1.87837 4.42534 1.39155 5.27534 1.03493C6.12534 0.678311 7.03368 0.5 8.00035 0.5C9.2448 0.5 10.3892 0.788694 11.4337 1.36608C12.4781 1.94347 13.3337 2.71332 14.0004 3.67563V2.53784C14.0004 2.34537 14.0643 2.18405 14.192 2.05385C14.3198 1.92366 14.4781 1.85856 14.667 1.85856C14.8559 1.85856 15.0143 1.92366 15.142 2.05385C15.2698 2.18405 15.3337 2.34537 15.3337 2.53784V5.25495C15.3337 5.44741 15.2698 5.60874 15.142 5.73894C15.0143 5.86913 14.8559 5.93423 14.667 5.93423H12.0004C11.8115 5.93423 11.6531 5.86913 11.5254 5.73894C11.3976 5.60874 11.3337 5.44741 11.3337 5.25495C11.3337 5.06249 11.3976 4.90116 11.5254 4.77097C11.6531 4.64077 11.8115 4.57567 12.0004 4.57567H12.9837C12.4504 3.76054 11.7476 3.1039 10.8754 2.60576C10.0031 2.10763 9.0448 1.85856 8.00035 1.85856Z" fill="#237804"/>
</svg>
