<svg width="18" height="18" viewBox="0 0 18 18" fill="none" xmlns="http://www.w3.org/2000/svg">
<path fill-rule="evenodd" clip-rule="evenodd" d="M6.12075 1.93477C6.31611 1.83702 6.53155 1.78613 6.75 1.78613C6.96845 1.78613 7.18389 1.83702 7.37925 1.93477L11.124 3.80827C11.2035 3.84727 11.2965 3.84727 11.376 3.80827L14.2778 2.35702C14.4921 2.24992 14.7303 2.19937 14.9697 2.21019C15.2091 2.22101 15.4418 2.29283 15.6456 2.41883C15.8495 2.54484 16.0178 2.72085 16.1345 2.93016C16.2512 3.13946 16.3125 3.37513 16.3125 3.61477V12.9785C16.3125 13.511 16.0117 13.9985 15.5347 14.2363L11.8785 16.064C11.6833 16.1615 11.4682 16.2123 11.25 16.2123C11.0318 16.2123 10.8167 16.1615 10.6215 16.064L6.876 14.1913C6.83689 14.1717 6.79375 14.1615 6.75 14.1615C6.70625 14.1615 6.66311 14.1717 6.624 14.1913L3.723 15.6425C3.50859 15.7498 3.27031 15.8005 3.0308 15.7898C2.79129 15.779 2.55851 15.7072 2.35455 15.5812C2.1506 15.4552 1.98225 15.2791 1.8655 15.0697C1.74875 14.8603 1.68748 14.6245 1.6875 14.3848V5.02102C1.6875 4.48852 1.98825 4.00102 2.4645 3.76327L6.12075 1.93552V1.93477ZM6.75 4.49977C6.89918 4.49977 7.04226 4.55904 7.14775 4.66453C7.25324 4.77001 7.3125 4.91309 7.3125 5.06227V11.2498C7.3125 11.399 7.25324 11.542 7.14775 11.6475C7.04226 11.753 6.89918 11.8123 6.75 11.8123C6.60082 11.8123 6.45774 11.753 6.35225 11.6475C6.24676 11.542 6.1875 11.399 6.1875 11.2498V5.06227C6.1875 4.91309 6.24676 4.77001 6.35225 4.66453C6.45774 4.55904 6.60082 4.49977 6.75 4.49977ZM11.8125 6.74977C11.8125 6.60059 11.7532 6.45751 11.6477 6.35203C11.5423 6.24654 11.3992 6.18727 11.25 6.18727C11.1008 6.18727 10.9577 6.24654 10.8523 6.35203C10.7468 6.45751 10.6875 6.60059 10.6875 6.74977V12.9373C10.6875 13.0865 10.7468 13.2295 10.8523 13.335C10.9577 13.4405 11.1008 13.4998 11.25 13.4998C11.3992 13.4998 11.5423 13.4405 11.6477 13.335C11.7532 13.2295 11.8125 13.0865 11.8125 12.9373V6.74977Z" fill="#389E0D"/>
</svg>
