<svg width="28" height="28" viewBox="0 0 28 28" fill="none" xmlns="http://www.w3.org/2000/svg">
<path d="M25.2003 0.787109H2.80033C2.23453 0.787109 1.69191 1.01187 1.29183 1.41195C0.891753 1.81203 0.666992 2.35465 0.666992 2.92044V25.3204C0.666992 25.8862 0.891753 26.4289 1.29183 26.8289C1.69191 27.229 2.23453 27.4538 2.80033 27.4538H25.2003C25.7661 27.4538 26.3087 27.229 26.7088 26.8289C27.1089 26.4289 27.3337 25.8862 27.3337 25.3204V2.92044C27.3337 2.35465 27.1089 1.81203 26.7088 1.41195C26.3087 1.01187 25.7661 0.787109 25.2003 0.787109ZM9.73366 20.5204C9.73366 20.8033 9.62128 21.0747 9.42124 21.2747C9.2212 21.4747 8.94989 21.5871 8.66699 21.5871C8.38409 21.5871 8.11278 21.4747 7.91275 21.2747C7.71271 21.0747 7.60033 20.8033 7.60033 20.5204V11.9871C7.60033 11.7042 7.71271 11.4329 7.91275 11.2329C8.11278 11.0328 8.38409 10.9204 8.66699 10.9204C8.94989 10.9204 9.2212 11.0328 9.42124 11.2329C9.62128 11.4329 9.73366 11.7042 9.73366 11.9871V20.5204ZM8.66699 9.32044C8.35054 9.32044 8.0412 9.22661 7.77808 9.05079C7.51496 8.87498 7.30989 8.6251 7.18879 8.33274C7.06768 8.04037 7.036 7.71867 7.09774 7.4083C7.15947 7.09793 7.31186 6.81284 7.53562 6.58907C7.75939 6.36531 8.04448 6.21292 8.35485 6.15119C8.66522 6.08945 8.98692 6.12114 9.27929 6.24224C9.57165 6.36334 9.82153 6.56841 9.99734 6.83153C10.1732 7.09465 10.267 7.40399 10.267 7.72044C10.267 8.14479 10.0984 8.55176 9.79836 8.85181C9.49831 9.15187 9.09134 9.32044 8.66699 9.32044V9.32044ZM21.467 20.5204C21.467 20.8033 21.3546 21.0747 21.1546 21.2747C20.9545 21.4747 20.6832 21.5871 20.4003 21.5871C20.1174 21.5871 19.8461 21.4747 19.6461 21.2747C19.446 21.0747 19.3337 20.8033 19.3337 20.5204V15.7204C19.3337 15.0132 19.0527 14.3349 18.5526 13.8348C18.0525 13.3347 17.3742 13.0538 16.667 13.0538C15.9597 13.0538 15.2815 13.3347 14.7814 13.8348C14.2813 14.3349 14.0003 15.0132 14.0003 15.7204V20.5204C14.0003 20.8033 13.8879 21.0747 13.6879 21.2747C13.4879 21.4747 13.2166 21.5871 12.9337 21.5871C12.6508 21.5871 12.3795 21.4747 12.1794 21.2747C11.9794 21.0747 11.867 20.8033 11.867 20.5204V11.9871C11.8663 11.7246 11.9623 11.471 12.1369 11.275C12.3114 11.0789 12.5521 10.954 12.8129 10.9243C13.0737 10.8946 13.3364 10.9621 13.5505 11.1139C13.7647 11.2657 13.9153 11.4912 13.9737 11.7471C14.6954 11.2578 15.5368 10.9744 16.4075 10.9273C17.2782 10.8801 18.1453 11.0711 18.9156 11.4796C19.686 11.888 20.3305 12.4986 20.78 13.2458C21.2295 13.993 21.467 14.8485 21.467 15.7204V20.5204Z" fill="#404963"/>
</svg>
