<svg width="28" height="28" viewBox="0 0 28 28" fill="none" xmlns="http://www.w3.org/2000/svg">
<path fill-rule="evenodd" clip-rule="evenodd" d="M3.5 8.75C3.5 8.26675 3.89175 7.875 4.375 7.875H23.625C24.1082 7.875 24.5 8.26675 24.5 8.75C24.5 9.23325 24.1082 9.625 23.625 9.625H4.375C3.89175 9.625 3.5 9.23325 3.5 8.75Z" fill="#404963"/>
<path fill-rule="evenodd" clip-rule="evenodd" d="M3.5 14C3.5 13.5168 3.89175 13.125 4.375 13.125H23.625C24.1082 13.125 24.5 13.5168 24.5 14C24.5 14.4832 24.1082 14.875 23.625 14.875H4.375C3.89175 14.875 3.5 14.4832 3.5 14Z" fill="#404963"/>
<path fill-rule="evenodd" clip-rule="evenodd" d="M3.5 19.25C3.5 18.7668 3.89175 18.375 4.375 18.375H23.625C24.1082 18.375 24.5 18.7668 24.5 19.25C24.5 19.7332 24.1082 20.125 23.625 20.125H4.375C3.89175 20.125 3.5 19.7332 3.5 19.25Z" fill="#404963"/>
</svg>
