<svg width="28" height="28" viewBox="0 0 28 28" fill="none" xmlns="http://www.w3.org/2000/svg">
<path fill-rule="evenodd" clip-rule="evenodd" d="M0.666992 13.7204C0.666992 6.29044 6.49033 0.787109 14.0003 0.787109C21.5103 0.787109 27.3337 6.29378 27.3337 13.7238C27.3337 21.1538 21.5103 26.6571 14.0003 26.6571C12.6503 26.6571 11.357 26.4771 10.1403 26.1438C9.90366 26.0804 9.65033 26.0971 9.42699 26.1971L6.78033 27.3638C6.08699 27.6704 5.30699 27.1771 5.28366 26.4204L5.21033 24.0471C5.20366 23.7538 5.07033 23.4804 4.85366 23.2871C2.26033 20.9671 0.666992 17.6071 0.666992 13.7204ZM9.91025 11.2904L5.99359 17.5038C5.61692 18.1004 6.35026 18.7704 6.91025 18.3438L11.1169 15.1504C11.4002 14.9338 11.7936 14.9338 12.0802 15.1471L15.1969 17.4838C16.1336 18.1838 17.4669 17.9404 18.0902 16.9504L22.0102 10.7404C22.3836 10.1438 21.6502 9.47044 21.0902 9.8971L16.8836 13.0904C16.6002 13.3071 16.2069 13.3071 15.9202 13.0938L12.8036 10.7571C11.8669 10.0571 10.5336 10.3004 9.91025 11.2904Z" fill="#404963"/>
</svg>
