<svg width="32" height="23" viewBox="0 0 32 23" fill="none" xmlns="http://www.w3.org/2000/svg">
<path fill-rule="evenodd" clip-rule="evenodd" d="M28.5204 1.14038C29.891 1.50952 30.9718 2.59008 31.3407 3.96092C32.0262 6.46482 31.9999 11.684 31.9999 11.684C31.9999 11.684 31.9999 16.8766 31.3409 19.3808C30.9718 20.7514 29.8912 21.8322 28.5204 22.2011C26.0162 22.8603 15.9999 22.8603 15.9999 22.8603C15.9999 22.8603 6.00974 22.8603 3.47948 22.175C2.10863 21.8058 1.02807 20.725 0.658933 19.3544C0 16.8766 0 11.6577 0 11.6577C0 11.6577 0 6.46482 0.658933 3.96092C1.02783 2.59032 2.135 1.48315 3.47923 1.11426C5.98337 0.455078 15.9997 0.455078 15.9997 0.455078C15.9997 0.455078 26.0162 0.455078 28.5204 1.14038ZM21.1398 11.6574L12.8105 16.4547V6.86003L21.1398 11.6574Z" fill="#404963"/>
</svg>
